<svg width="158" height="109" viewBox="0 0 158 109" fill="none" xmlns="http://www.w3.org/2000/svg">
<path d="M0.773047 15V0.599999H5.28305C5.41638 0.599999 5.66305 0.603333 6.02305 0.61C6.38971 0.616666 6.73971 0.643332 7.07305 0.689999C8.19971 0.829999 9.14638 1.23333 9.91305 1.9C10.6864 2.56667 11.2697 3.41333 11.663 4.44C12.0564 5.46 12.253 6.58 12.253 7.8C12.253 9.02667 12.0564 10.1533 11.663 11.18C11.2697 12.2 10.6864 13.0433 9.91305 13.71C9.14638 14.37 8.19971 14.77 7.07305 14.91C6.73971 14.9567 6.38971 14.9833 6.02305 14.99C5.66305 14.9967 5.41638 15 5.28305 15H0.773047ZM2.91305 13.01H5.28305C5.50971 13.01 5.77971 13.0033 6.09305 12.99C6.40638 12.9767 6.68305 12.95 6.92305 12.91C7.65638 12.77 8.24971 12.4533 8.70305 11.96C9.16305 11.46 9.49971 10.8467 9.71305 10.12C9.92638 9.39333 10.033 8.62 10.033 7.8C10.033 6.95333 9.92305 6.17 9.70305 5.45C9.48305 4.72333 9.14305 4.11667 8.68305 3.63C8.22971 3.13667 7.64305 2.82333 6.92305 2.69C6.68305 2.64333 6.40305 2.61667 6.08305 2.61C5.76971 2.59667 5.50305 2.59 5.28305 2.59H2.91305V13.01ZM19.3716 15.3C18.2983 15.3 17.355 15.0667 16.5416 14.6C15.735 14.1267 15.105 13.47 14.6516 12.63C14.205 11.7833 13.9816 10.8033 13.9816 9.69C13.9816 8.51 14.2016 7.48667 14.6416 6.62C15.0883 5.75333 15.7083 5.08333 16.5016 4.61C17.295 4.13667 18.2183 3.9 19.2716 3.9C20.3716 3.9 21.3083 4.15667 22.0816 4.67C22.855 5.17667 23.4316 5.9 23.8116 6.84C24.1983 7.78 24.3516 8.89667 24.2716 10.19H22.1816V9.43C22.1683 8.17667 21.9283 7.25 21.4616 6.65C21.0016 6.05 20.2983 5.75 19.3516 5.75C18.305 5.75 17.5183 6.08 16.9916 6.74C16.465 7.4 16.2016 8.35333 16.2016 9.6C16.2016 10.7867 16.465 11.7067 16.9916 12.36C17.5183 13.0067 18.2783 13.33 19.2716 13.33C19.925 13.33 20.4883 13.1833 20.9616 12.89C21.4416 12.59 21.815 12.1633 22.0816 11.61L24.1316 12.26C23.7116 13.2267 23.075 13.9767 22.2216 14.51C21.3683 15.0367 20.4183 15.3 19.3716 15.3ZM15.5216 10.19V8.56H23.2316V10.19H15.5216ZM29.0446 15L25.1246 4.2H27.2346L30.1046 12.38L32.9746 4.2H35.0846L31.1646 15H29.0446ZM41.2857 15.3C40.2124 15.3 39.269 15.0667 38.4557 14.6C37.649 14.1267 37.019 13.47 36.5657 12.63C36.119 11.7833 35.8957 10.8033 35.8957 9.69C35.8957 8.51 36.1157 7.48667 36.5557 6.62C37.0024 5.75333 37.6224 5.08333 38.4157 4.61C39.209 4.13667 40.1324 3.9 41.1857 3.9C42.2857 3.9 43.2224 4.15667 43.9957 4.67C44.769 5.17667 45.3457 5.9 45.7257 6.84C46.1124 7.78 46.2657 8.89667 46.1857 10.19H44.0957V9.43C44.0824 8.17667 43.8424 7.25 43.3757 6.65C42.9157 6.05 42.2124 5.75 41.2657 5.75C40.219 5.75 39.4324 6.08 38.9057 6.74C38.379 7.4 38.1157 8.35333 38.1157 9.6C38.1157 10.7867 38.379 11.7067 38.9057 12.36C39.4324 13.0067 40.1924 13.33 41.1857 13.33C41.839 13.33 42.4024 13.1833 42.8757 12.89C43.3557 12.59 43.729 12.1633 43.9957 11.61L46.0457 12.26C45.6257 13.2267 44.989 13.9767 44.1357 14.51C43.2824 15.0367 42.3324 15.3 41.2857 15.3ZM37.4357 10.19V8.56H45.1457V10.19H37.4357ZM48.6293 15V0.3H50.7193V15H48.6293ZM58.4123 15.3C57.3323 15.3 56.3956 15.0567 55.6023 14.57C54.8089 14.0833 54.1956 13.4133 53.7623 12.56C53.3356 11.7 53.1223 10.71 53.1223 9.59C53.1223 8.46333 53.3423 7.47333 53.7823 6.62C54.2223 5.76 54.8389 5.09333 55.6323 4.62C56.4256 4.14 57.3523 3.9 58.4123 3.9C59.4923 3.9 60.4289 4.14333 61.2223 4.63C62.0156 5.11667 62.6289 5.78667 63.0623 6.64C63.4956 7.49333 63.7123 8.47667 63.7123 9.59C63.7123 10.7167 63.4923 11.71 63.0523 12.57C62.6189 13.4233 62.0056 14.0933 61.2123 14.58C60.4189 15.06 59.4856 15.3 58.4123 15.3ZM58.4123 13.33C59.4456 13.33 60.2156 12.9833 60.7223 12.29C61.2356 11.59 61.4923 10.69 61.4923 9.59C61.4923 8.46333 61.2323 7.56333 60.7123 6.89C60.1989 6.21 59.4323 5.87 58.4123 5.87C57.7123 5.87 57.1356 6.03 56.6823 6.35C56.2289 6.66333 55.8923 7.1 55.6723 7.66C55.4523 8.21333 55.3423 8.85667 55.3423 9.59C55.3423 10.7233 55.6023 11.63 56.1223 12.31C56.6423 12.99 57.4056 13.33 58.4123 13.33ZM70.9798 15.3C69.9464 15.3 69.0798 15.05 68.3798 14.55C67.6798 14.0433 67.1498 13.36 66.7898 12.5C66.4298 11.64 66.2498 10.67 66.2498 9.59C66.2498 8.51 66.4264 7.54 66.7798 6.68C67.1398 5.82 67.6664 5.14333 68.3598 4.65C69.0598 4.15 69.9198 3.9 70.9398 3.9C71.9531 3.9 72.8264 4.15 73.5598 4.65C74.2998 5.14333 74.8698 5.82 75.2698 6.68C75.6698 7.53333 75.8698 8.50333 75.8698 9.59C75.8698 10.67 75.6698 11.6433 75.2698 12.51C74.8764 13.37 74.3131 14.05 73.5798 14.55C72.8531 15.05 71.9864 15.3 70.9798 15.3ZM65.8998 19.8V4.2H67.7598V11.97H67.9998V19.8H65.8998ZM70.6898 13.41C71.3564 13.41 71.9064 13.24 72.3398 12.9C72.7798 12.56 73.1064 12.1033 73.3198 11.53C73.5398 10.95 73.6498 10.3033 73.6498 9.59C73.6498 8.88333 73.5398 8.24333 73.3198 7.67C73.1064 7.09667 72.7764 6.64 72.3298 6.3C71.8831 5.96 71.3131 5.79 70.6198 5.79C69.9664 5.79 69.4264 5.95 68.9998 6.27C68.5798 6.59 68.2664 7.03667 68.0598 7.61C67.8598 8.18333 67.7598 8.84333 67.7598 9.59C67.7598 10.3367 67.8598 10.9967 68.0598 11.57C68.2598 12.1433 68.5764 12.5933 69.0098 12.92C69.4431 13.2467 70.0031 13.41 70.6898 13.41ZM91.0177 15L91.0277 8.27C91.0277 7.49 90.8277 6.88333 90.4277 6.45C90.0277 6.01 89.5011 5.79 88.8477 5.79C88.4477 5.79 88.0811 5.88333 87.7477 6.07C87.4211 6.25 87.1544 6.52333 86.9477 6.89C86.7477 7.25 86.6477 7.70333 86.6477 8.25L85.6377 7.74C85.6244 6.98 85.7844 6.31333 86.1177 5.74C86.4577 5.16667 86.9177 4.72333 87.4977 4.41C88.0777 4.09 88.7277 3.93 89.4477 3.93C90.6144 3.93 91.5177 4.28 92.1577 4.98C92.7977 5.68 93.1177 6.61 93.1177 7.77L93.1077 15H91.0177ZM78.0677 15V4.2H79.9277V7.32H80.1677V15H78.0677ZM84.5477 15L84.5577 8.31C84.5577 7.52333 84.3577 6.90667 83.9577 6.46C83.5644 6.01333 83.0344 5.79 82.3677 5.79C81.7077 5.79 81.1744 6.01667 80.7677 6.47C80.3677 6.92333 80.1677 7.51667 80.1677 8.25L79.1677 7.61C79.1677 6.90333 79.3377 6.27333 79.6777 5.72C80.0177 5.16667 80.4777 4.73 81.0577 4.41C81.6377 4.09 82.2944 3.93 83.0277 3.93C83.7944 3.93 84.4477 4.09333 84.9877 4.42C85.5277 4.74 85.9377 5.19 86.2177 5.77C86.5044 6.35 86.6477 7.02333 86.6477 7.79L86.6377 15H84.5477ZM100.368 15.3C99.2944 15.3 98.3511 15.0667 97.5377 14.6C96.7311 14.1267 96.1011 13.47 95.6477 12.63C95.2011 11.7833 94.9777 10.8033 94.9777 9.69C94.9777 8.51 95.1977 7.48667 95.6377 6.62C96.0844 5.75333 96.7044 5.08333 97.4977 4.61C98.2911 4.13667 99.2144 3.9 100.268 3.9C101.368 3.9 102.304 4.15667 103.078 4.67C103.851 5.17667 104.428 5.9 104.808 6.84C105.194 7.78 105.348 8.89667 105.268 10.19H103.178V9.43C103.164 8.17667 102.924 7.25 102.458 6.65C101.998 6.05 101.294 5.75 100.348 5.75C99.3011 5.75 98.5144 6.08 97.9877 6.74C97.4611 7.4 97.1977 8.35333 97.1977 9.6C97.1977 10.7867 97.4611 11.7067 97.9877 12.36C98.5144 13.0067 99.2744 13.33 100.268 13.33C100.921 13.33 101.484 13.1833 101.958 12.89C102.438 12.59 102.811 12.1633 103.078 11.61L105.128 12.26C104.708 13.2267 104.071 13.9767 103.218 14.51C102.364 15.0367 101.414 15.3 100.368 15.3ZM96.5177 10.19V8.56H104.228V10.19H96.5177ZM114.798 15V9.69C114.798 9.27 114.762 8.84 114.688 8.4C114.622 7.95333 114.488 7.54 114.288 7.16C114.095 6.78 113.818 6.47333 113.458 6.24C113.105 6.00667 112.642 5.89 112.068 5.89C111.695 5.89 111.342 5.95333 111.008 6.08C110.675 6.2 110.382 6.39667 110.128 6.67C109.882 6.94333 109.685 7.30333 109.538 7.75C109.398 8.19667 109.328 8.74 109.328 9.38L108.028 8.89C108.028 7.91 108.212 7.04667 108.578 6.3C108.945 5.54667 109.472 4.96 110.158 4.54C110.845 4.12 111.675 3.91 112.648 3.91C113.395 3.91 114.022 4.03 114.528 4.27C115.035 4.51 115.445 4.82667 115.758 5.22C116.078 5.60667 116.322 6.03 116.488 6.49C116.655 6.95 116.768 7.4 116.828 7.84C116.888 8.28 116.918 8.66667 116.918 9V15H114.798ZM107.208 15V4.2H109.078V7.32H109.328V15H107.208ZM125.703 15C125.023 15.1333 124.356 15.19 123.703 15.17C123.05 15.15 122.466 15.0233 121.953 14.79C121.44 14.5567 121.053 14.19 120.793 13.69C120.56 13.2433 120.433 12.79 120.413 12.33C120.4 11.8633 120.393 11.3367 120.393 10.75V1.2H122.493V10.65C122.493 11.0833 122.496 11.46 122.503 11.78C122.516 12.1 122.586 12.37 122.713 12.59C122.953 13.0033 123.333 13.24 123.853 13.3C124.38 13.3533 124.996 13.33 125.703 13.23V15ZM118.323 5.88V4.2H125.703V5.88H118.323ZM137.054 15.3C136.021 15.3 135.154 15.05 134.454 14.55C133.754 14.0433 133.224 13.36 132.864 12.5C132.504 11.64 132.324 10.67 132.324 9.59C132.324 8.51 132.501 7.54 132.854 6.68C133.214 5.82 133.741 5.14333 134.434 4.65C135.134 4.15 135.994 3.9 137.014 3.9C138.027 3.9 138.901 4.15 139.634 4.65C140.374 5.14333 140.944 5.82 141.344 6.68C141.744 7.53333 141.944 8.50333 141.944 9.59C141.944 10.67 141.744 11.6433 141.344 12.51C140.951 13.37 140.387 14.05 139.654 14.55C138.927 15.05 138.061 15.3 137.054 15.3ZM131.974 15V0.599999H134.074V7.23H133.834V15H131.974ZM136.764 13.41C137.431 13.41 137.981 13.24 138.414 12.9C138.854 12.56 139.181 12.1033 139.394 11.53C139.614 10.95 139.724 10.3033 139.724 9.59C139.724 8.88333 139.614 8.24333 139.394 7.67C139.181 7.09667 138.851 6.64 138.404 6.3C137.957 5.96 137.387 5.79 136.694 5.79C136.041 5.79 135.501 5.95 135.074 6.27C134.654 6.59 134.341 7.03667 134.134 7.61C133.934 8.18333 133.834 8.84333 133.834 9.59C133.834 10.3367 133.934 10.9967 134.134 11.57C134.334 12.1433 134.651 12.5933 135.084 12.92C135.517 13.2467 136.077 13.41 136.764 13.41ZM144.948 19.8L147.038 14.11L147.068 15.79L142.358 4.2H144.538L148.058 13.15H147.418L150.778 4.2H152.898L146.938 19.8H144.948ZM155.264 13.6V11.39H157.474V13.6H155.264ZM155.274 7.81V5.6H157.484V7.81H155.274ZM28.1949 59V44.6H37.3949V46.57H30.2849V50.61H36.1949V52.58H30.2849V57.03H37.3949V59H28.1949ZM42.7165 59L38.7965 48.2H40.9065L43.7765 56.38L46.6465 48.2H48.7565L44.8365 59H42.7165ZM54.9576 59.3C53.8842 59.3 52.9409 59.0667 52.1276 58.6C51.3209 58.1267 50.6909 57.47 50.2376 56.63C49.7909 55.7833 49.5676 54.8033 49.5676 53.69C49.5676 52.51 49.7876 51.4867 50.2276 50.62C50.6742 49.7533 51.2942 49.0833 52.0876 48.61C52.8809 48.1367 53.8042 47.9 54.8576 47.9C55.9576 47.9 56.8942 48.1567 57.6676 48.67C58.4409 49.1767 59.0176 49.9 59.3976 50.84C59.7842 51.78 59.9376 52.8967 59.8576 54.19H57.7676V53.43C57.7542 52.1767 57.5142 51.25 57.0476 50.65C56.5876 50.05 55.8842 49.75 54.9376 49.75C53.8909 49.75 53.1042 50.08 52.5776 50.74C52.0509 51.4 51.7876 52.3533 51.7876 53.6C51.7876 54.7867 52.0509 55.7067 52.5776 56.36C53.1042 57.0067 53.8642 57.33 54.8576 57.33C55.5109 57.33 56.0742 57.1833 56.5476 56.89C57.0276 56.59 57.4009 56.1633 57.6676 55.61L59.7176 56.26C59.2976 57.2267 58.6609 57.9767 57.8076 58.51C56.9542 59.0367 56.0042 59.3 54.9576 59.3ZM51.1076 54.19V52.56H58.8176V54.19H51.1076ZM62.1012 59V48.2H63.9612V50.82L63.7012 50.48C63.8345 50.1333 64.0078 49.8167 64.2212 49.53C64.4345 49.2367 64.6812 48.9967 64.9612 48.81C65.2345 48.61 65.5378 48.4567 65.8712 48.35C66.2112 48.2367 66.5578 48.17 66.9112 48.15C67.2645 48.1233 67.6045 48.14 67.9312 48.2V50.16C67.5778 50.0667 67.1845 50.04 66.7512 50.08C66.3245 50.12 65.9312 50.2567 65.5712 50.49C65.2312 50.71 64.9612 50.9767 64.7612 51.29C64.5678 51.6033 64.4278 51.9533 64.3412 52.34C64.2545 52.72 64.2112 53.1233 64.2112 53.55V59H62.1012ZM73.8395 59V44.6H79.6595C79.7995 44.6 79.9728 44.6067 80.1795 44.62C80.3861 44.6267 80.5828 44.6467 80.7695 44.68C81.5695 44.8067 82.2361 45.08 82.7695 45.5C83.3095 45.92 83.7128 46.45 83.9795 47.09C84.2461 47.73 84.3795 48.4367 84.3795 49.21C84.3795 49.99 84.2461 50.7 83.9795 51.34C83.7128 51.98 83.3095 52.51 82.7695 52.93C82.2361 53.35 81.5695 53.6233 80.7695 53.75C80.5828 53.7767 80.3828 53.7967 80.1695 53.81C79.9628 53.8233 79.7928 53.83 79.6595 53.83H75.9295V59H73.8395ZM75.9295 51.85H79.5795C79.7128 51.85 79.8595 51.8433 80.0195 51.83C80.1861 51.8167 80.3428 51.7933 80.4895 51.76C80.9161 51.66 81.2595 51.4767 81.5195 51.21C81.7795 50.9367 81.9661 50.6233 82.0795 50.27C82.1928 49.9167 82.2495 49.5633 82.2495 49.21C82.2495 48.8567 82.1928 48.5067 82.0795 48.16C81.9661 47.8067 81.7795 47.4967 81.5195 47.23C81.2595 46.9567 80.9161 46.77 80.4895 46.67C80.3428 46.63 80.1861 46.6033 80.0195 46.59C79.8595 46.5767 79.7128 46.57 79.5795 46.57H75.9295V51.85ZM90.9318 59.3C89.8518 59.3 88.9151 59.0567 88.1218 58.57C87.3285 58.0833 86.7151 57.4133 86.2818 56.56C85.8551 55.7 85.6418 54.71 85.6418 53.59C85.6418 52.4633 85.8618 51.4733 86.3018 50.62C86.7418 49.76 87.3585 49.0933 88.1518 48.62C88.9451 48.14 89.8718 47.9 90.9318 47.9C92.0118 47.9 92.9485 48.1433 93.7418 48.63C94.5351 49.1167 95.1485 49.7867 95.5818 50.64C96.0151 51.4933 96.2318 52.4767 96.2318 53.59C96.2318 54.7167 96.0118 55.71 95.5718 56.57C95.1385 57.4233 94.5251 58.0933 93.7318 58.58C92.9385 59.06 92.0051 59.3 90.9318 59.3ZM90.9318 57.33C91.9651 57.33 92.7351 56.9833 93.2418 56.29C93.7551 55.59 94.0118 54.69 94.0118 53.59C94.0118 52.4633 93.7518 51.5633 93.2318 50.89C92.7185 50.21 91.9518 49.87 90.9318 49.87C90.2318 49.87 89.6551 50.03 89.2018 50.35C88.7485 50.6633 88.4118 51.1 88.1918 51.66C87.9718 52.2133 87.8618 52.8567 87.8618 53.59C87.8618 54.7233 88.1218 55.63 88.6418 56.31C89.1618 56.99 89.9251 57.33 90.9318 57.33ZM106.009 59V53.69C106.009 53.27 105.973 52.84 105.899 52.4C105.833 51.9533 105.699 51.54 105.499 51.16C105.306 50.78 105.029 50.4733 104.669 50.24C104.316 50.0067 103.853 49.89 103.279 49.89C102.906 49.89 102.553 49.9533 102.219 50.08C101.886 50.2 101.593 50.3967 101.339 50.67C101.093 50.9433 100.896 51.3033 100.749 51.75C100.609 52.1967 100.539 52.74 100.539 53.38L99.2393 52.89C99.2393 51.91 99.4226 51.0467 99.7893 50.3C100.156 49.5467 100.683 48.96 101.369 48.54C102.056 48.12 102.886 47.91 103.859 47.91C104.606 47.91 105.233 48.03 105.739 48.27C106.246 48.51 106.656 48.8267 106.969 49.22C107.289 49.6067 107.533 50.03 107.699 50.49C107.866 50.95 107.979 51.4 108.039 51.84C108.099 52.28 108.129 52.6667 108.129 53V59H106.009ZM98.4193 59V48.2H100.289V51.32H100.539V59H98.4193ZM115.217 59.3C114.111 59.3 113.171 59.0533 112.397 58.56C111.624 58.0667 111.031 57.39 110.617 56.53C110.211 55.67 110.004 54.6933 109.997 53.6C110.004 52.4867 110.217 51.5033 110.637 50.65C111.057 49.79 111.657 49.1167 112.437 48.63C113.217 48.1433 114.154 47.9 115.247 47.9C116.427 47.9 117.434 48.1933 118.267 48.78C119.107 49.3667 119.661 50.17 119.927 51.19L117.847 51.79C117.641 51.1833 117.301 50.7133 116.827 50.38C116.361 50.04 115.824 49.87 115.217 49.87C114.531 49.87 113.967 50.0333 113.527 50.36C113.087 50.68 112.761 51.12 112.547 51.68C112.334 52.24 112.224 52.88 112.217 53.6C112.224 54.7133 112.477 55.6133 112.977 56.3C113.484 56.9867 114.231 57.33 115.217 57.33C115.891 57.33 116.434 57.1767 116.847 56.87C117.267 56.5567 117.587 56.11 117.807 55.53L119.927 56.03C119.574 57.0833 118.991 57.8933 118.177 58.46C117.364 59.02 116.377 59.3 115.217 59.3ZM126.461 59.3C125.388 59.3 124.445 59.0667 123.631 58.6C122.825 58.1267 122.195 57.47 121.741 56.63C121.295 55.7833 121.071 54.8033 121.071 53.69C121.071 52.51 121.291 51.4867 121.731 50.62C122.178 49.7533 122.798 49.0833 123.591 48.61C124.385 48.1367 125.308 47.9 126.361 47.9C127.461 47.9 128.398 48.1567 129.171 48.67C129.945 49.1767 130.521 49.9 130.901 50.84C131.288 51.78 131.441 52.8967 131.361 54.19H129.271V53.43C129.258 52.1767 129.018 51.25 128.551 50.65C128.091 50.05 127.388 49.75 126.441 49.75C125.395 49.75 124.608 50.08 124.081 50.74C123.555 51.4 123.291 52.3533 123.291 53.6C123.291 54.7867 123.555 55.7067 124.081 56.36C124.608 57.0067 125.368 57.33 126.361 57.33C127.015 57.33 127.578 57.1833 128.051 56.89C128.531 56.59 128.905 56.1633 129.171 55.61L131.221 56.26C130.801 57.2267 130.165 57.9767 129.311 58.51C128.458 59.0367 127.508 59.3 126.461 59.3ZM122.611 54.19V52.56H130.321V54.19H122.611ZM12.2672 81V66.6H21.4672V68.57H14.3572V72.61H20.2672V74.58H14.3572V79.03H21.4672V81H12.2672ZM28.1588 81.3C27.1521 81.3 26.2821 81.05 25.5488 80.55C24.8221 80.05 24.2588 79.37 23.8588 78.51C23.4654 77.6433 23.2688 76.67 23.2688 75.59C23.2688 74.5033 23.4688 73.5333 23.8688 72.68C24.2688 71.82 24.8354 71.1433 25.5688 70.65C26.3088 70.15 27.1854 69.9 28.1988 69.9C29.2188 69.9 30.0754 70.15 30.7688 70.65C31.4688 71.1433 31.9954 71.82 32.3488 72.68C32.7088 73.54 32.8888 74.51 32.8888 75.59C32.8888 76.67 32.7088 77.64 32.3488 78.5C31.9888 79.36 31.4588 80.0433 30.7588 80.55C30.0588 81.05 29.1921 81.3 28.1588 81.3ZM28.4488 79.41C29.1354 79.41 29.6954 79.2467 30.1288 78.92C30.5621 78.5933 30.8788 78.1433 31.0788 77.57C31.2788 76.9967 31.3788 76.3367 31.3788 75.59C31.3788 74.8433 31.2754 74.1833 31.0688 73.61C30.8688 73.0367 30.5554 72.59 30.1288 72.27C29.7088 71.95 29.1721 71.79 28.5188 71.79C27.8254 71.79 27.2554 71.96 26.8088 72.3C26.3621 72.64 26.0288 73.0967 25.8088 73.67C25.5954 74.2433 25.4888 74.8833 25.4888 75.59C25.4888 76.3033 25.5954 76.95 25.8088 77.53C26.0288 78.1033 26.3554 78.56 26.7888 78.9C27.2288 79.24 27.7821 79.41 28.4488 79.41ZM31.3788 81V73.23H31.1388V66.6H33.2388V81H31.3788ZM38.3367 81L35.0367 70.19L37.1067 70.2L39.3667 77.61L41.6467 70.2H43.4467L45.7267 77.61L47.9867 70.2H50.0467L46.7467 81H45.0667L42.5467 73.18L40.0167 81H38.3367ZM54.282 81.3C53.482 81.3 52.812 81.1533 52.272 80.86C51.732 80.56 51.322 80.1667 51.042 79.68C50.7687 79.1867 50.632 78.6467 50.632 78.06C50.632 77.5133 50.7287 77.0333 50.922 76.62C51.1154 76.2067 51.402 75.8567 51.782 75.57C52.162 75.2767 52.6287 75.04 53.182 74.86C53.662 74.72 54.2054 74.5967 54.812 74.49C55.4187 74.3833 56.0554 74.2833 56.722 74.19C57.3954 74.0967 58.062 74.0033 58.722 73.91L57.962 74.33C57.9754 73.4833 57.7954 72.8567 57.422 72.45C57.0554 72.0367 56.422 71.83 55.522 71.83C54.9554 71.83 54.4354 71.9633 53.962 72.23C53.4887 72.49 53.1587 72.9233 52.972 73.53L51.022 72.93C51.2887 72.0033 51.7954 71.2667 52.542 70.72C53.2954 70.1733 54.2954 69.9 55.542 69.9C56.5087 69.9 57.3487 70.0667 58.062 70.4C58.782 70.7267 59.3087 71.2467 59.642 71.96C59.8154 72.3133 59.922 72.6867 59.962 73.08C60.002 73.4733 60.022 73.8967 60.022 74.35V81H58.172V78.53L58.532 78.85C58.0854 79.6767 57.5154 80.2933 56.822 80.7C56.1354 81.1 55.2887 81.3 54.282 81.3ZM54.652 79.59C55.2454 79.59 55.7554 79.4867 56.182 79.28C56.6087 79.0667 56.952 78.7967 57.212 78.47C57.472 78.1433 57.642 77.8033 57.722 77.45C57.8354 77.13 57.8987 76.77 57.912 76.37C57.932 75.97 57.942 75.65 57.942 75.41L58.622 75.66C57.962 75.76 57.362 75.85 56.822 75.93C56.282 76.01 55.792 76.09 55.352 76.17C54.9187 76.2433 54.532 76.3333 54.192 76.44C53.9054 76.54 53.6487 76.66 53.422 76.8C53.202 76.94 53.0254 77.11 52.892 77.31C52.7654 77.51 52.702 77.7533 52.702 78.04C52.702 78.32 52.772 78.58 52.912 78.82C53.052 79.0533 53.2654 79.24 53.552 79.38C53.8387 79.52 54.2054 79.59 54.652 79.59ZM62.6188 81V70.2H64.4788V72.82L64.2188 72.48C64.3521 72.1333 64.5254 71.8167 64.7388 71.53C64.9521 71.2367 65.1988 70.9967 65.4788 70.81C65.7521 70.61 66.0554 70.4567 66.3888 70.35C66.7288 70.2367 67.0754 70.17 67.4288 70.15C67.7821 70.1233 68.1221 70.14 68.4488 70.2V72.16C68.0954 72.0667 67.7021 72.04 67.2688 72.08C66.8421 72.12 66.4488 72.2567 66.0888 72.49C65.7488 72.71 65.4788 72.9767 65.2788 73.29C65.0854 73.6033 64.9454 73.9533 64.8588 74.34C64.7721 74.72 64.7288 75.1233 64.7288 75.55V81H62.6188ZM74.4478 81.3C73.4411 81.3 72.5711 81.05 71.8378 80.55C71.1111 80.05 70.5478 79.37 70.1478 78.51C69.7545 77.6433 69.5578 76.67 69.5578 75.59C69.5578 74.5033 69.7578 73.5333 70.1578 72.68C70.5578 71.82 71.1245 71.1433 71.8578 70.65C72.5978 70.15 73.4745 69.9 74.4878 69.9C75.5078 69.9 76.3645 70.15 77.0578 70.65C77.7578 71.1433 78.2845 71.82 78.6378 72.68C78.9978 73.54 79.1778 74.51 79.1778 75.59C79.1778 76.67 78.9978 77.64 78.6378 78.5C78.2778 79.36 77.7478 80.0433 77.0478 80.55C76.3478 81.05 75.4811 81.3 74.4478 81.3ZM74.7378 79.41C75.4245 79.41 75.9845 79.2467 76.4178 78.92C76.8511 78.5933 77.1678 78.1433 77.3678 77.57C77.5678 76.9967 77.6678 76.3367 77.6678 75.59C77.6678 74.8433 77.5645 74.1833 77.3578 73.61C77.1578 73.0367 76.8445 72.59 76.4178 72.27C75.9978 71.95 75.4611 71.79 74.8078 71.79C74.1145 71.79 73.5445 71.96 73.0978 72.3C72.6511 72.64 72.3178 73.0967 72.0978 73.67C71.8845 74.2433 71.7778 74.8833 71.7778 75.59C71.7778 76.3033 71.8845 76.95 72.0978 77.53C72.3178 78.1033 72.6445 78.56 73.0778 78.9C73.5178 79.24 74.0711 79.41 74.7378 79.41ZM77.6678 81V73.23H77.4278V66.6H79.5278V81H77.6678ZM86.3297 81V66.6H88.2197L93.4397 77.43L98.6297 66.6H100.54V80.99H98.5597V71.14L93.9097 81H92.9597L88.2997 71.14V81H86.3297ZM103.541 68.43V66.4H105.631V68.43H103.541ZM103.541 81V70.2H105.631V81H103.541ZM113.254 81.3C112.148 81.3 111.208 81.0533 110.434 80.56C109.661 80.0667 109.068 79.39 108.654 78.53C108.248 77.67 108.041 76.6933 108.034 75.6C108.041 74.4867 108.254 73.5033 108.674 72.65C109.094 71.79 109.694 71.1167 110.474 70.63C111.254 70.1433 112.191 69.9 113.284 69.9C114.464 69.9 115.471 70.1933 116.304 70.78C117.144 71.3667 117.698 72.17 117.964 73.19L115.884 73.79C115.678 73.1833 115.338 72.7133 114.864 72.38C114.398 72.04 113.861 71.87 113.254 71.87C112.568 71.87 112.004 72.0333 111.564 72.36C111.124 72.68 110.798 73.12 110.584 73.68C110.371 74.24 110.261 74.88 110.254 75.6C110.261 76.7133 110.514 77.6133 111.014 78.3C111.521 78.9867 112.268 79.33 113.254 79.33C113.928 79.33 114.471 79.1767 114.884 78.87C115.304 78.5567 115.624 78.11 115.844 77.53L117.964 78.03C117.611 79.0833 117.028 79.8933 116.214 80.46C115.401 81.02 114.414 81.3 113.254 81.3ZM127.582 81V75.69C127.582 75.27 127.545 74.84 127.472 74.4C127.405 73.9533 127.272 73.54 127.072 73.16C126.878 72.78 126.602 72.4733 126.242 72.24C125.888 72.0067 125.425 71.89 124.852 71.89C124.478 71.89 124.125 71.9533 123.792 72.08C123.458 72.2 123.165 72.3967 122.912 72.67C122.665 72.9433 122.468 73.3033 122.322 73.75C122.182 74.1967 122.112 74.74 122.112 75.38L120.812 74.89C120.812 73.91 120.995 73.0467 121.362 72.3C121.728 71.5467 122.255 70.96 122.942 70.54C123.628 70.12 124.458 69.91 125.432 69.91C126.178 69.91 126.805 70.03 127.312 70.27C127.818 70.51 128.228 70.8267 128.542 71.22C128.862 71.6067 129.105 72.03 129.272 72.49C129.438 72.95 129.552 73.4 129.612 73.84C129.672 74.28 129.702 74.6667 129.702 75V81H127.582ZM119.992 81V66.6H121.862V74.37H122.112V81H119.992ZM137.096 81.3C136.023 81.3 135.08 81.0667 134.266 80.6C133.46 80.1267 132.83 79.47 132.376 78.63C131.93 77.7833 131.706 76.8033 131.706 75.69C131.706 74.51 131.926 73.4867 132.366 72.62C132.813 71.7533 133.433 71.0833 134.226 70.61C135.02 70.1367 135.943 69.9 136.996 69.9C138.096 69.9 139.033 70.1567 139.806 70.67C140.58 71.1767 141.156 71.9 141.536 72.84C141.923 73.78 142.076 74.8967 141.996 76.19H139.906V75.43C139.893 74.1767 139.653 73.25 139.186 72.65C138.726 72.05 138.023 71.75 137.076 71.75C136.03 71.75 135.243 72.08 134.716 72.74C134.19 73.4 133.926 74.3533 133.926 75.6C133.926 76.7867 134.19 77.7067 134.716 78.36C135.243 79.0067 136.003 79.33 136.996 79.33C137.65 79.33 138.213 79.1833 138.686 78.89C139.166 78.59 139.54 78.1633 139.806 77.61L141.856 78.26C141.436 79.2267 140.8 79.9767 139.946 80.51C139.093 81.0367 138.143 81.3 137.096 81.3ZM133.246 76.19V74.56H140.956V76.19H133.246ZM144.44 81V66.3H146.53V81H144.44ZM22.3844 103V88.6H26.8944C27.0277 88.6 27.2744 88.6033 27.6344 88.61C28.001 88.6167 28.351 88.6433 28.6844 88.69C29.811 88.83 30.7577 89.2333 31.5244 89.9C32.2977 90.5667 32.881 91.4133 33.2744 92.44C33.6677 93.46 33.8644 94.58 33.8644 95.8C33.8644 97.0267 33.6677 98.1533 33.2744 99.18C32.881 100.2 32.2977 101.043 31.5244 101.71C30.7577 102.37 29.811 102.77 28.6844 102.91C28.351 102.957 28.001 102.983 27.6344 102.99C27.2744 102.997 27.0277 103 26.8944 103H22.3844ZM24.5244 101.01H26.8944C27.121 101.01 27.391 101.003 27.7044 100.99C28.0177 100.977 28.2944 100.95 28.5344 100.91C29.2677 100.77 29.861 100.453 30.3144 99.96C30.7744 99.46 31.111 98.8467 31.3244 98.12C31.5377 97.3933 31.6444 96.62 31.6444 95.8C31.6444 94.9533 31.5344 94.17 31.3144 93.45C31.0944 92.7233 30.7544 92.1167 30.2944 91.63C29.841 91.1367 29.2544 90.8233 28.5344 90.69C28.2944 90.6433 28.0144 90.6167 27.6944 90.61C27.381 90.5967 27.1144 90.59 26.8944 90.59H24.5244V101.01ZM36.393 90.43V88.4H38.483V90.43H36.393ZM36.393 103V92.2H38.483V103H36.393ZM46.2759 103.3C45.2026 103.3 44.2593 103.067 43.4459 102.6C42.6393 102.127 42.0093 101.47 41.5559 100.63C41.1093 99.7833 40.8859 98.8033 40.8859 97.69C40.8859 96.51 41.1059 95.4867 41.5459 94.62C41.9926 93.7533 42.6126 93.0833 43.4059 92.61C44.1993 92.1367 45.1226 91.9 46.1759 91.9C47.2759 91.9 48.2126 92.1567 48.9859 92.67C49.7593 93.1767 50.3359 93.9 50.7159 94.84C51.1026 95.78 51.2559 96.8967 51.1759 98.19H49.0859V97.43C49.0726 96.1767 48.8326 95.25 48.3659 94.65C47.9059 94.05 47.2026 93.75 46.2559 93.75C45.2093 93.75 44.4226 94.08 43.8959 94.74C43.3693 95.4 43.1059 96.3533 43.1059 97.6C43.1059 98.7867 43.3693 99.7067 43.8959 100.36C44.4226 101.007 45.1826 101.33 46.1759 101.33C46.8293 101.33 47.3926 101.183 47.8659 100.89C48.3459 100.59 48.7193 100.163 48.9859 99.61L51.0359 100.26C50.6159 101.227 49.9793 101.977 49.1259 102.51C48.2726 103.037 47.3226 103.3 46.2759 103.3ZM42.4259 98.19V96.56H50.1359V98.19H42.4259ZM57.8695 108.1C57.2895 108.1 56.7262 108.01 56.1795 107.83C55.6395 107.65 55.1462 107.383 54.6995 107.03C54.2529 106.683 53.8829 106.253 53.5895 105.74L55.5195 104.76C55.7529 105.22 56.0862 105.557 56.5195 105.77C56.9529 105.983 57.4095 106.09 57.8895 106.09C58.4829 106.09 58.9895 105.983 59.4095 105.77C59.8295 105.563 60.1462 105.25 60.3595 104.83C60.5795 104.41 60.6862 103.89 60.6795 103.27V100.25H60.9295V92.2H62.7795V103.29C62.7795 103.577 62.7695 103.85 62.7495 104.11C62.7295 104.37 62.6929 104.63 62.6395 104.89C62.4862 105.617 62.1929 106.217 61.7595 106.69C61.3329 107.163 60.7862 107.517 60.1195 107.75C59.4595 107.983 58.7095 108.1 57.8695 108.1ZM57.7095 103.3C56.7029 103.3 55.8329 103.05 55.0995 102.55C54.3729 102.05 53.8095 101.37 53.4095 100.51C53.0162 99.6433 52.8195 98.67 52.8195 97.59C52.8195 96.5033 53.0195 95.5333 53.4195 94.68C53.8195 93.82 54.3862 93.1433 55.1195 92.65C55.8595 92.15 56.7362 91.9 57.7495 91.9C58.7695 91.9 59.6262 92.15 60.3195 92.65C61.0195 93.1433 61.5462 93.82 61.8995 94.68C62.2595 95.54 62.4395 96.51 62.4395 97.59C62.4395 98.67 62.2595 99.64 61.8995 100.5C61.5395 101.36 61.0095 102.043 60.3095 102.55C59.6095 103.05 58.7429 103.3 57.7095 103.3ZM57.9995 101.41C58.6862 101.41 59.2462 101.247 59.6795 100.92C60.1129 100.593 60.4295 100.143 60.6295 99.57C60.8295 98.9967 60.9295 98.3367 60.9295 97.59C60.9295 96.8433 60.8262 96.1833 60.6195 95.61C60.4195 95.0367 60.1062 94.59 59.6795 94.27C59.2595 93.95 58.7229 93.79 58.0695 93.79C57.3762 93.79 56.8062 93.96 56.3595 94.3C55.9129 94.64 55.5795 95.0967 55.3595 95.67C55.1462 96.2433 55.0395 96.8833 55.0395 97.59C55.0395 98.3033 55.1462 98.95 55.3595 99.53C55.5795 100.103 55.9062 100.56 56.3395 100.9C56.7795 101.24 57.3329 101.41 57.9995 101.41ZM70.2775 103.3C69.1975 103.3 68.2608 103.057 67.4675 102.57C66.6742 102.083 66.0608 101.413 65.6275 100.56C65.2008 99.7 64.9875 98.71 64.9875 97.59C64.9875 96.4633 65.2075 95.4733 65.6475 94.62C66.0875 93.76 66.7042 93.0933 67.4975 92.62C68.2908 92.14 69.2175 91.9 70.2775 91.9C71.3575 91.9 72.2942 92.1433 73.0875 92.63C73.8808 93.1167 74.4942 93.7867 74.9275 94.64C75.3608 95.4933 75.5775 96.4767 75.5775 97.59C75.5775 98.7167 75.3575 99.71 74.9175 100.57C74.4842 101.423 73.8708 102.093 73.0775 102.58C72.2842 103.06 71.3508 103.3 70.2775 103.3ZM70.2775 101.33C71.3108 101.33 72.0808 100.983 72.5875 100.29C73.1008 99.59 73.3575 98.69 73.3575 97.59C73.3575 96.4633 73.0975 95.5633 72.5775 94.89C72.0642 94.21 71.2975 93.87 70.2775 93.87C69.5775 93.87 69.0008 94.03 68.5475 94.35C68.0942 94.6633 67.7575 95.1 67.5375 95.66C67.3175 96.2133 67.2075 96.8567 67.2075 97.59C67.2075 98.7233 67.4675 99.63 67.9875 100.31C68.5075 100.99 69.2708 101.33 70.2775 101.33ZM81.9789 103V88.6H84.0689V101.03H90.5889V103H81.9789ZM95.3367 103.3C94.5367 103.3 93.8667 103.153 93.3267 102.86C92.7867 102.56 92.3767 102.167 92.0967 101.68C91.8234 101.187 91.6867 100.647 91.6867 100.06C91.6867 99.5133 91.7834 99.0333 91.9767 98.62C92.1701 98.2067 92.4567 97.8567 92.8367 97.57C93.2167 97.2767 93.6834 97.04 94.2367 96.86C94.7167 96.72 95.2601 96.5967 95.8667 96.49C96.4734 96.3833 97.1101 96.2833 97.7767 96.19C98.4501 96.0967 99.1167 96.0033 99.7767 95.91L99.0167 96.33C99.0301 95.4833 98.8501 94.8567 98.4767 94.45C98.1101 94.0367 97.4767 93.83 96.5767 93.83C96.0101 93.83 95.4901 93.9633 95.0167 94.23C94.5434 94.49 94.2134 94.9233 94.0267 95.53L92.0767 94.93C92.3434 94.0033 92.8501 93.2667 93.5967 92.72C94.3501 92.1733 95.3501 91.9 96.5967 91.9C97.5634 91.9 98.4034 92.0667 99.1167 92.4C99.8367 92.7267 100.363 93.2467 100.697 93.96C100.87 94.3133 100.977 94.6867 101.017 95.08C101.057 95.4733 101.077 95.8967 101.077 96.35V103H99.2267V100.53L99.5867 100.85C99.1401 101.677 98.5701 102.293 97.8767 102.7C97.1901 103.1 96.3434 103.3 95.3367 103.3ZM95.7067 101.59C96.3001 101.59 96.8101 101.487 97.2367 101.28C97.6634 101.067 98.0067 100.797 98.2667 100.47C98.5267 100.143 98.6967 99.8033 98.7767 99.45C98.8901 99.13 98.9534 98.77 98.9667 98.37C98.9867 97.97 98.9967 97.65 98.9967 97.41L99.6767 97.66C99.0167 97.76 98.4167 97.85 97.8767 97.93C97.3367 98.01 96.8467 98.09 96.4067 98.17C95.9734 98.2433 95.5867 98.3333 95.2467 98.44C94.9601 98.54 94.7034 98.66 94.4767 98.8C94.2567 98.94 94.0801 99.11 93.9467 99.31C93.8201 99.51 93.7567 99.7533 93.7567 100.04C93.7567 100.32 93.8267 100.58 93.9667 100.82C94.1067 101.053 94.3201 101.24 94.6067 101.38C94.8934 101.52 95.2601 101.59 95.7067 101.59ZM103.673 103V92.2H105.533V94.82L105.273 94.48C105.407 94.1333 105.58 93.8167 105.793 93.53C106.007 93.2367 106.253 92.9967 106.533 92.81C106.807 92.61 107.11 92.4567 107.443 92.35C107.783 92.2367 108.13 92.17 108.483 92.15C108.837 92.1233 109.177 92.14 109.503 92.2V94.16C109.15 94.0667 108.757 94.04 108.323 94.08C107.897 94.12 107.503 94.2567 107.143 94.49C106.803 94.71 106.533 94.9767 106.333 95.29C106.14 95.6033 106 95.9533 105.913 96.34C105.827 96.72 105.783 97.1233 105.783 97.55V103H103.673ZM111.608 90.43V88.4H113.698V90.43H111.608ZM111.608 103V92.2H113.698V103H111.608ZM121.391 103.3C120.311 103.3 119.374 103.057 118.581 102.57C117.787 102.083 117.174 101.413 116.741 100.56C116.314 99.7 116.101 98.71 116.101 97.59C116.101 96.4633 116.321 95.4733 116.761 94.62C117.201 93.76 117.817 93.0933 118.611 92.62C119.404 92.14 120.331 91.9 121.391 91.9C122.471 91.9 123.407 92.1433 124.201 92.63C124.994 93.1167 125.607 93.7867 126.041 94.64C126.474 95.4933 126.691 96.4767 126.691 97.59C126.691 98.7167 126.471 99.71 126.031 100.57C125.597 101.423 124.984 102.093 124.191 102.58C123.397 103.06 122.464 103.3 121.391 103.3ZM121.391 101.33C122.424 101.33 123.194 100.983 123.701 100.29C124.214 99.59 124.471 98.69 124.471 97.59C124.471 96.4633 124.211 95.5633 123.691 94.89C123.177 94.21 122.411 93.87 121.391 93.87C120.691 93.87 120.114 94.03 119.661 94.35C119.207 94.6633 118.871 95.1 118.651 95.66C118.431 96.2133 118.321 96.8567 118.321 97.59C118.321 98.7233 118.581 99.63 119.101 100.31C119.621 100.99 120.384 101.33 121.391 101.33ZM132.823 103.29C131.51 103.29 130.44 103 129.613 102.42C128.786 101.84 128.28 101.023 128.093 99.97L130.233 99.64C130.366 100.2 130.673 100.643 131.153 100.97C131.64 101.29 132.243 101.45 132.963 101.45C133.616 101.45 134.126 101.317 134.493 101.05C134.866 100.783 135.053 100.417 135.053 99.95C135.053 99.6767 134.986 99.4567 134.853 99.29C134.726 99.1167 134.456 98.9533 134.043 98.8C133.63 98.6467 133 98.4567 132.153 98.23C131.226 97.99 130.49 97.7333 129.943 97.46C129.403 97.18 129.016 96.8567 128.783 96.49C128.556 96.1167 128.443 95.6667 128.443 95.14C128.443 94.4867 128.616 93.9167 128.963 93.43C129.31 92.9433 129.796 92.5667 130.423 92.3C131.056 92.0333 131.796 91.9 132.643 91.9C133.47 91.9 134.206 92.03 134.853 92.29C135.5 92.55 136.023 92.92 136.423 93.4C136.823 93.8733 137.063 94.43 137.143 95.07L135.003 95.46C134.93 94.94 134.686 94.53 134.273 94.23C133.86 93.93 133.323 93.7667 132.663 93.74C132.03 93.7133 131.516 93.82 131.123 94.06C130.73 94.2933 130.533 94.6167 130.533 95.03C130.533 95.27 130.606 95.4733 130.753 95.64C130.906 95.8067 131.2 95.9667 131.633 96.12C132.066 96.2733 132.706 96.4567 133.553 96.67C134.46 96.9033 135.18 97.1633 135.713 97.45C136.246 97.73 136.626 98.0667 136.853 98.46C137.086 98.8467 137.203 99.3167 137.203 99.87C137.203 100.937 136.813 101.773 136.033 102.38C135.26 102.987 134.19 103.29 132.823 103.29Z" fill="#8E8989"/>
</svg>
