<svg width="18" height="19" viewBox="0 0 18 19" fill="none" xmlns="http://www.w3.org/2000/svg">
<path d="M9 0.5C4.032 0.5 0 4.532 0 9.5C0 14.468 4.032 18.5 9 18.5C13.968 18.5 18 14.468 18 9.5C18 4.532 13.968 0.5 9 0.5ZM5.4 14.45C4.80326 14.45 4.23097 14.2129 3.80901 13.791C3.38705 13.369 3.15 12.7967 3.15 12.2C3.15 11.6033 3.38705 11.031 3.80901 10.609C4.23097 10.1871 4.80326 9.95 5.4 9.95C5.99674 9.95 6.56903 10.1871 6.99099 10.609C7.41295 11.031 7.65 11.6033 7.65 12.2C7.65 12.7967 7.41295 13.369 6.99099 13.791C6.56903 14.2129 5.99674 14.45 5.4 14.45ZM6.75 5.9C6.75 5.30326 6.98705 4.73097 7.40901 4.30901C7.83097 3.88705 8.40326 3.65 9 3.65C9.59674 3.65 10.169 3.88705 10.591 4.30901C11.0129 4.73097 11.25 5.30326 11.25 5.9C11.25 6.49674 11.0129 7.06903 10.591 7.49099C10.169 7.91295 9.59674 8.15 9 8.15C8.40326 8.15 7.83097 7.91295 7.40901 7.49099C6.98705 7.06903 6.75 6.49674 6.75 5.9V5.9ZM12.6 14.45C12.0033 14.45 11.431 14.2129 11.009 13.791C10.5871 13.369 10.35 12.7967 10.35 12.2C10.35 11.6033 10.5871 11.031 11.009 10.609C11.431 10.1871 12.0033 9.95 12.6 9.95C13.1967 9.95 13.769 10.1871 14.191 10.609C14.6129 11.031 14.85 11.6033 14.85 12.2C14.85 12.7967 14.6129 13.369 14.191 13.791C13.769 14.2129 13.1967 14.45 12.6 14.45Z" fill="#B2B2B2"/>
</svg>
