<svg width="18" height="16" viewBox="0 0 18 16" fill="none" xmlns="http://www.w3.org/2000/svg">
<path d="M12 3.5C12 4.29565 11.6839 5.05871 11.1213 5.62132C10.5587 6.18393 9.79565 6.5 9 6.5C8.20435 6.5 7.44129 6.18393 6.87868 5.62132C6.31607 5.05871 6 4.29565 6 3.5C6 2.70435 6.31607 1.94129 6.87868 1.37868C7.44129 0.816071 8.20435 0.5 9 0.5C9.79565 0.5 10.5587 0.816071 11.1213 1.37868C11.6839 1.94129 12 2.70435 12 3.5Z" fill="#B2B2B2"/>
<path d="M17 5.5C17 6.03043 16.7893 6.53914 16.4142 6.91421C16.0391 7.28929 15.5304 7.5 15 7.5C14.4696 7.5 13.9609 7.28929 13.5858 6.91421C13.2107 6.53914 13 6.03043 13 5.5C13 4.96957 13.2107 4.46086 13.5858 4.08579C13.9609 3.71071 14.4696 3.5 15 3.5C15.5304 3.5 16.0391 3.71071 16.4142 4.08579C16.7893 4.46086 17 4.96957 17 5.5Z" fill="#B2B2B2"/>
<path d="M5 5.5C5 6.03043 4.78929 6.53914 4.41421 6.91421C4.03914 7.28929 3.53043 7.5 3 7.5C2.46957 7.5 1.96086 7.28929 1.58579 6.91421C1.21071 6.53914 1 6.03043 1 5.5C1 4.96957 1.21071 4.46086 1.58579 4.08579C1.96086 3.71071 2.46957 3.5 3 3.5C3.53043 3.5 4.03914 3.71071 4.41421 4.08579C4.78929 4.46086 5 4.96957 5 5.5Z" fill="#B2B2B2"/>
<path d="M15 15.5V12.5C15.0014 11.4833 14.7433 10.483 14.25 9.594C14.6933 9.48054 15.1568 9.46984 15.6049 9.56272C16.053 9.65559 16.474 9.84959 16.8357 10.1299C17.1974 10.4102 17.4903 10.7695 17.6921 11.1802C17.8939 11.591 17.9992 12.0424 18 12.5V15.5H15Z" fill="#B2B2B2"/>
<path d="M3.75 9.59398C3.25675 10.483 2.9986 11.4833 3 12.5V15.5H2.6572e-07V12.5C-0.000192468 12.042 0.104463 11.5901 0.305947 11.1788C0.507431 10.7676 0.800394 10.4079 1.16238 10.1274C1.52437 9.84688 1.94578 9.65296 2.39431 9.5605C2.84284 9.46804 3.30658 9.47949 3.75 9.59398Z" fill="#B2B2B2"/>
<rect x="5" y="8.5" width="8" height="7" rx="3" fill="#B2B2B2"/>
</svg>
