<svg width="0.8" height="1.9" viewBox="0 0 25 31" fill="none" xmlns="http://www.w3.org/2000/svg">
<path d="M19.7916 9.66675V8.20842C19.7916 4.18779 16.5206 0.916748 12.5 0.916748C8.47935 0.916748 5.20831 4.18779 5.20831 8.20842V12.5834H3.74998C2.14144 12.5834 0.833313 13.8915 0.833313 15.5001V27.1667C0.833313 28.7753 2.14144 30.0834 3.74998 30.0834H21.25C22.8585 30.0834 24.1666 28.7753 24.1666 27.1667V15.5001C24.1666 13.8915 22.8585 12.5834 21.25 12.5834H8.12498V8.20842C8.12498 5.79633 10.0879 3.83341 12.5 3.83341C14.9121 3.83341 16.875 5.79633 16.875 8.20842V9.66675H19.7916Z" fill="white"/>
</svg>
