<svg width="18" height="18" viewBox="0 0 18 18" fill="none" xmlns="http://www.w3.org/2000/svg">
<path d="M0.531353 0.385368C0.414173 0.443868 0.324533 0.529728 0.269813 0.631248L0.179993 0.78731V7.50131C0.179993 13.9966 0.183953 14.2191 0.254153 14.3791C0.304913 14.4884 0.379073 14.5703 0.500033 14.6367C4.92641 17.1387 5.88275 17.6735 5.98823 17.6931C6.17165 17.7321 6.44111 17.615 6.57377 17.4432L6.67925 17.3066L6.69095 16.0263L6.70265 14.7459L9.30617 14.7342C11.8512 14.7225 11.9137 14.7225 12.0463 14.6406C12.1205 14.5976 12.222 14.504 12.2688 14.4299L12.3586 14.301V12.1815V10.058H11.7536H11.1487V11.7756V13.4931H8.92367H6.69869L6.69095 8.58275L6.67925 3.66839L6.58169 3.54347C6.51149 3.45365 6.01577 3.14927 4.90319 2.52071C4.03271 2.02499 3.29507 1.60739 3.26375 1.58777C3.22865 1.56437 4.77053 1.54871 7.17893 1.54871H11.1487V3.75389V5.95943H11.7536H12.3586V3.34799V0.740509L12.2728 0.611628C12.222 0.541428 12.1324 0.443868 12.0737 0.400848L11.9644 0.318949L6.33563 0.307249L0.706853 0.299509L0.531353 0.385368Z" fill="#B2B2B2"/>
<path d="M13.7756 5.27234L13.6663 5.36594L13.6546 6.24812L13.6429 7.1303H11.9957C11.016 7.1303 10.2782 7.14974 10.1729 7.17332C9.75906 7.26692 9.48978 7.59884 9.48978 8.0087C9.49374 8.36006 9.6498 8.61764 9.95814 8.78162C10.1104 8.86352 10.1572 8.86748 11.8786 8.87918L13.6429 8.89088L13.6546 9.7691L13.6663 10.6513L13.799 10.7683C13.9082 10.8658 13.955 10.8815 14.0605 10.8658C14.2205 10.8385 17.6985 8.32856 17.7844 8.17646C17.8234 8.09834 17.8312 8.03984 17.8038 7.92662C17.7687 7.79 17.6555 7.70018 15.973 6.47852C14.3726 5.31914 14.1619 5.17874 14.033 5.17874C13.9316 5.17874 13.8497 5.20988 13.7756 5.27234Z" fill="#B2B2B2"/>
</svg>
