<svg width="68" height="44" viewBox="0 0 68 44" fill="none" xmlns="http://www.w3.org/2000/svg">
<path d="M15.6027 15.04V17.3H11.8827V29H9.08266V17.3H5.36266V15.04H15.6027ZM20.4456 15.04V29H17.6456V15.04H20.4456ZM38.432 15.04V29H35.632V19.92L31.892 29H29.772L26.012 19.92V29H23.212V15.04H26.392L30.832 25.42L35.272 15.04H38.432ZM44.0003 17.3V20.8H48.7003V23.02H44.0003V26.72H49.3003V29H41.2003V15.02H49.3003V17.3H44.0003ZM59.0448 29L55.9648 23.56H54.6448V29H51.8448V15.04H57.0848C58.1648 15.04 59.0848 15.2333 59.8448 15.62C60.6048 15.9933 61.1715 16.5067 61.5448 17.16C61.9315 17.8 62.1248 18.52 62.1248 19.32C62.1248 20.24 61.8582 21.0733 61.3248 21.82C60.7915 22.5533 59.9982 23.06 58.9448 23.34L62.2848 29H59.0448ZM54.6448 21.46H56.9848C57.7448 21.46 58.3115 21.28 58.6848 20.92C59.0582 20.5467 59.2448 20.0333 59.2448 19.38C59.2448 18.74 59.0582 18.2467 58.6848 17.9C58.3115 17.54 57.7448 17.36 56.9848 17.36H54.6448V21.46Z" fill="black"/>
</svg>
