<svg width="12" height="6" viewBox="0 0 12 6" fill="none" xmlns="http://www.w3.org/2000/svg">
<path d="M1.6247 0.219131C1.19343 -0.125878 0.564141 -0.055957 0.219131 0.375305C-0.125878 0.806567 -0.055957 1.43586 0.375305 1.78087L1.6247 0.219131ZM6 5L5.37531 5.78087C5.74052 6.07304 6.25948 6.07304 6.62469 5.78087L6 5ZM11.6247 1.78087C12.056 1.43586 12.1259 0.806567 11.7809 0.375305C11.4359 -0.055957 10.8066 -0.125878 10.3753 0.219131L11.6247 1.78087ZM0.375305 1.78087L5.37531 5.78087L6.62469 4.21913L1.6247 0.219131L0.375305 1.78087ZM6.62469 5.78087L11.6247 1.78087L10.3753 0.219131L5.37531 4.21913L6.62469 5.78087Z" fill="#B2B2B2"/>
</svg>
